{
  "asset": {
    "version": "2.0",
    "generator": "Sketchup glTF Exporter v1.2.6 by Centaur"
  },
  "scene": 0,
  "scenes": [
    {
      "nodes": [
        0
      ]
    }
  ],
  "samplers": [
    {
    }
  ],
  "nodes": [
    {
      "name": "root",
      "children": [
        1
      ]
    },
    {
      "name": "AnyConv.com__AnyConv.com__ey.stl",
      "mesh": 0
    }
  ],
  "materials": [
    {
      "pbrMetallicRoughness": {
        "baseColorFactor": [
          0.2176,
          0.2176,
          0.2176,
          1.0
        ],
        "metallicFactor": 0.1,
        "roughnessFactor": 0.9
      },
      "name": "default material",
      "doubleSided": true
    }
  ],
  "meshes": [
    {
      "primitives": [
        {
          "attributes": {
            "POSITION": 0,
            "NORMAL": 1
          },
          "indices": 2,
          "mode": 4,
          "material": 0
        }
      ]
    }
  ],
  "accessors": [
    {
      "bufferView": 0,
      "componentType": 5126,
      "count": 34097,
      "type": "VEC3",
      "min": [
        -0.09366250000000001,
        -8.944667923005412e-18,
        -0.044386278152465874
      ],
      "max": [
        0.09113207855224609,
        0.18322029057517647,
        -6.591949208711867e-17
      ]
    },
    {
      "bufferView": 1,
      "componentType": 5126,
      "count": 34097,
      "type": "VEC3",
      "min": [
        -0.9999999998459425,
        -0.9999999998489306,
        -1.0
      ],
      "max": [
        0.9999999998459425,
        0.9999999998104393,
        0.9999999999999375
      ]
    },
    {
      "bufferView": 2,
      "componentType": 5123,
      "count": 34101,
      "type": "SCALAR"
    }
  ],
  "bufferViews": [
    {
      "buffer": 0,
      "byteLength": 409164,
      "target": 34962,
      "byteStride": 12
    },
    {
      "buffer": 0,
      "byteOffset": 409164,
      "byteLength": 409164,
      "target": 34962,
      "byteStride": 12
    },
    {
      "buffer": 0,
      "byteOffset": 818328,
      "byteLength": 68202,
      "target": 34963
    }
  ],
  "buffers": [
    {
      "uri": "data:application/octet-stream;base64,",
      "byteLength": 886530
    }
  ]
}